<svg width="144" height="40" viewBox="0 0 144 40" fill="none" xmlns="http://www.w3.org/2000/svg">
<path d="M40.4634 0H47.3353L33.0384 14.3842C27.863 19.5911 19.4722 19.5911 14.2969 14.3842L2.33471e-09 0H6.87185L17.7329 10.9273C21.0106 14.225 26.3246 14.225 29.6024 10.9273L40.4634 0Z" transform="translate(0.0878906)" fill="white"/>
<path d="M6.87186 18.3783H0L14.3852 3.90517C19.5606 -1.30172 27.9513 -1.30172 33.1267 3.90517L47.512 18.3783H40.6401L29.6907 7.362C26.413 4.06428 21.0989 4.06428 17.8212 7.362L6.87186 18.3783Z" transform="translate(0 21.6216)" fill="white"/>
<path fill-rule="evenodd" clip-rule="evenodd" d="M20.5698 0L20.5775 0.000104528C22.3338 0.036478 23.9831 0.380876 25.5178 1.03717C27.0776 1.65405 28.4477 2.50831 29.6227 3.59962C30.8023 4.6949 31.7234 5.98908 32.3873 7.47486C33.055 8.93471 33.3874 10.4842 33.3874 12.117C33.3874 13.7872 33.0352 15.3731 32.3289 16.8686C31.6633 18.322 30.7228 19.6129 29.5113 20.738C28.3341 21.8313 26.9441 22.7024 25.3485 23.353L25.341 23.3561C23.7663 23.9775 22.0781 24.2858 20.2837 24.2858H5.27914V39.9993H0V0.000104528L20.5698 0ZM20.2837 19.4351C21.3422 19.4351 22.344 19.2454 23.2955 18.8668C24.2556 18.4845 25.0907 17.9616 25.8063 17.2972C26.5217 16.6328 27.0848 15.8572 27.4964 14.9655C27.9029 14.0846 28.1084 13.1372 28.1084 12.117C28.1084 11.1342 27.9041 10.2039 27.4964 9.32029C27.0848 8.42861 26.5217 7.65296 25.8063 6.98862C25.0907 6.32428 24.2556 5.80126 23.2955 5.41902C22.344 5.04045 21.3422 4.85074 20.2837 4.85074H5.27914V19.4351H20.2837Z" transform="translate(110.611)" fill="white"/>
<path d="M12.8748 24.3691C15.5203 24.3691 18.0236 25.4845 19.6837 27.4029L30.5839 39.9993H37.3704L22.4562 22.5351C20.7972 20.5923 18.2774 19.4603 15.6122 19.4603H5.27914V4.90892H20.2839C21.3422 4.90892 22.344 5.09887 23.2955 5.47794C24.2558 5.86056 25.0908 6.38426 25.8063 7.04956L25.8183 7.06045C26.5263 7.68755 27.0862 8.44223 27.4964 9.33254C27.9029 10.2146 28.1084 11.163 28.1084 12.1845C28.1084 13.2046 27.9035 14.1518 27.4982 15.0327C27.2523 15.5466 26.9515 16.0259 26.5954 16.4713L30.0303 20.297C30.0734 20.2519 30.1161 20.2065 30.1585 20.1607C31.1741 19.0708 31.9569 17.8523 32.505 16.5078C33.0947 15.1525 33.3876 13.7095 33.3876 12.1845C33.3876 10.5495 33.055 8.99817 32.3874 7.53643C31.7236 6.04852 30.8023 4.75288 29.6227 3.65597C28.4491 2.56471 27.0812 1.69313 25.5244 1.04133C23.9879 0.382311 22.3365 0.0365251 20.5775 0.000209299L20.5698 0H2.63964C1.9155 0 1.28126 0.272212 0.759159 0.757609C0.259921 1.22187 0 1.79894 0 2.45441V39.9993H5.27914V24.3691H12.8748Z" transform="translate(59.3887)" fill="white"/>
</svg>
