<svg xmlns="http://www.w3.org/2000/svg" viewBox="0 0 123.564 72.378"><title>icn_xcurrent</title><g id="Layer_2" data-name="Layer 2"><g id="Home"><path d="M62.025,29.7192a25.3922,25.3922,0,0,1-8.0056-1.3236c-5.1436-1.7409-9.4032-4.988-13.522-8.129-1.1408-.8692-2.2817-1.7384-3.4373-2.5706-5.7313-4.1386-10.6971-5.9066-15.67-5.6325L17.3209,7.0162c6.0844-.3605,16.0648,1.7927,22.6974,6.5783,1.1927.8569,2.3681,1.7532,3.5435,2.6521,3.9707,3.0249,7.7191,5.8844,12.0775,7.3586a19.73,19.73,0,0,0,12.7417,0c4.3584-1.4742,8.1068-4.3312,12.075-7.3586,1.1779-.8964,2.3533-1.7927,3.546-2.6545,6.3807-4.6053,16.2554-6.761,22.241-6.6079l-4.1655,5.0572c-4.7683-.1852-9.5909,1.6668-15.1172,5.6523-1.1556.8346-2.2965,1.7063-3.4373,2.5755-4.1188,3.1385-8.376,6.3857-13.522,8.1266A25.35,25.35,0,0,1,62.025,29.7192Z" style="fill:#19cc95"/><path d="M62.025,47.4063a25.3922,25.3922,0,0,1-8.0056-1.3236c-5.1436-1.7409-9.4032-4.988-13.522-8.129-1.1408-.8692-2.2817-1.7384-3.4373-2.5706-5.7313-4.1386-10.6971-5.9066-15.67-5.6325l-4.0688-5.0473c6.0844-.3605,16.0648,1.7927,22.6974,6.5783,1.1927.8569,2.3681,1.7532,3.5435,2.6521,3.9707,3.0249,7.7191,5.8844,12.0775,7.3586a19.73,19.73,0,0,0,12.7417,0c4.3584-1.4742,8.1068-4.3312,12.075-7.3586,1.1779-.8964,2.3533-1.7927,3.546-2.6545,6.3807-4.6053,16.2554-6.761,22.241-6.6079l-4.1655,5.0572c-4.7683-.1852-9.5909,1.6668-15.1172,5.6523-1.1556.8346-2.2965,1.7063-3.4373,2.5755-4.1188,3.1385-8.376,6.3857-13.522,8.1266A25.35,25.35,0,0,1,62.025,47.4063Z" style="fill:#19cc95"/><path d="M62.0275,65.5152a25.5032,25.5032,0,0,1-8.008-1.326c-5.1436-1.7384-9.4057-4.9856-13.5245-8.1266-1.1408-.8692-2.2792-1.7384-3.4348-2.5706-5.7338-4.1361-10.6922-5.9338-15.67-5.635L17.3209,42.81c6.0844-.3605,16.0623,1.7927,22.6974,6.5808,1.19.8569,2.3656,1.7532,3.5435,2.65,3.9682,3.0274,7.7191,5.8844,12.0775,7.3586a19.6867,19.6867,0,0,0,12.7417,0c4.3608-1.4742,8.1093-4.3312,12.0775-7.3561,1.1754-.8988,2.3508-1.7927,3.5435-2.6545,6.3832-4.6028,16.3492-6.7487,22.241-6.61L102.08,47.8348c-4.7658-.1087-9.5933,1.6693-15.12,5.6548-1.1556.8346-2.2965,1.7038-3.4373,2.573-4.1188,3.141-8.376,6.3881-13.522,8.1266A25.4544,25.4544,0,0,1,62.0275,65.5152Z" style="fill:#19cc95"/></g><g id="Frames"><rect width="123.564" height="72.378" style="fill:none"/></g></g></svg>